<?xml version="1.0" encoding="utf-8"?>
<svg xmlns="http://www.w3.org/2000/svg" xmlns:xlink="http://www.w3.org/1999/xlink" width="600" height="600" viewBox="0 0 2400 2400">
<defs>
  <clipPath id="clip040">
    <rect x="0" y="0" width="2400" height="2400"/>
  </clipPath>
</defs>
<path clip-path="url(#clip040)" d="
M0 2400 L2400 2400 L2400 0 L0 0  Z
  " fill="#ffffff" fill-rule="evenodd" fill-opacity="1"/>
<defs>
  <clipPath id="clip041">
    <rect x="480" y="240" width="1681" height="1681"/>
  </clipPath>
</defs>
<path clip-path="url(#clip040)" d="
M273.302 2174.14 L2352.76 2174.14 L2352.76 153.712 L273.302 153.712  Z
  " fill="#ffffff" fill-rule="evenodd" fill-opacity="1"/>
<defs>
  <clipPath id="clip042">
    <rect x="273" y="153" width="2080" height="2021"/>
  </clipPath>
</defs>
<polyline clip-path="url(#clip042)" style="stroke:#000000; stroke-linecap:round; stroke-linejoin:round; stroke-width:2; stroke-opacity:0.1; fill:none" points="
  316.513,2174.14 316.513,153.712 
  "/>
<polyline clip-path="url(#clip042)" style="stroke:#000000; stroke-linecap:round; stroke-linejoin:round; stroke-width:2; stroke-opacity:0.1; fill:none" points="
  810.908,2174.14 810.908,153.712 
  "/>
<polyline clip-path="url(#clip042)" style="stroke:#000000; stroke-linecap:round; stroke-linejoin:round; stroke-width:2; stroke-opacity:0.1; fill:none" points="
  1305.3,2174.14 1305.3,153.712 
  "/>
<polyline clip-path="url(#clip042)" style="stroke:#000000; stroke-linecap:round; stroke-linejoin:round; stroke-width:2; stroke-opacity:0.1; fill:none" points="
  1799.7,2174.14 1799.7,153.712 
  "/>
<polyline clip-path="url(#clip042)" style="stroke:#000000; stroke-linecap:round; stroke-linejoin:round; stroke-width:2; stroke-opacity:0.1; fill:none" points="
  2294.09,2174.14 2294.09,153.712 
  "/>
<polyline clip-path="url(#clip040)" style="stroke:#000000; stroke-linecap:round; stroke-linejoin:round; stroke-width:4; stroke-opacity:1; fill:none" points="
  273.302,2174.14 2352.76,2174.14 
  "/>
<polyline clip-path="url(#clip040)" style="stroke:#000000; stroke-linecap:round; stroke-linejoin:round; stroke-width:4; stroke-opacity:1; fill:none" points="
  316.513,2174.14 316.513,2155.24 
  "/>
<polyline clip-path="url(#clip040)" style="stroke:#000000; stroke-linecap:round; stroke-linejoin:round; stroke-width:4; stroke-opacity:1; fill:none" points="
  810.908,2174.14 810.908,2155.24 
  "/>
<polyline clip-path="url(#clip040)" style="stroke:#000000; stroke-linecap:round; stroke-linejoin:round; stroke-width:4; stroke-opacity:1; fill:none" points="
  1305.3,2174.14 1305.3,2155.24 
  "/>
<polyline clip-path="url(#clip040)" style="stroke:#000000; stroke-linecap:round; stroke-linejoin:round; stroke-width:4; stroke-opacity:1; fill:none" points="
  1799.7,2174.14 1799.7,2155.24 
  "/>
<polyline clip-path="url(#clip040)" style="stroke:#000000; stroke-linecap:round; stroke-linejoin:round; stroke-width:4; stroke-opacity:1; fill:none" points="
  2294.09,2174.14 2294.09,2155.24 
  "/>
<path clip-path="url(#clip040)" d="M278.817 2205.06 Q275.206 2205.06 273.377 2208.62 Q271.571 2212.16 271.571 2219.29 Q271.571 2226.4 273.377 2229.97 Q275.206 2233.51 278.817 2233.51 Q282.451 2233.51 284.256 2229.97 Q286.085 2226.4 286.085 2219.29 Q286.085 2212.16 284.256 2208.62 Q282.451 2205.06 278.817 2205.06 M278.817 2201.35 Q284.627 2201.35 287.682 2205.96 Q290.761 2210.54 290.761 2219.29 Q290.761 2228.02 287.682 2232.63 Q284.627 2237.21 278.817 2237.21 Q273.007 2237.21 269.928 2232.63 Q266.872 2228.02 266.872 2219.29 Q266.872 2210.54 269.928 2205.96 Q273.007 2201.35 278.817 2201.35 Z" fill="#000000" fill-rule="evenodd" fill-opacity="1" /><path clip-path="url(#clip040)" d="M298.979 2230.66 L303.863 2230.66 L303.863 2236.54 L298.979 2236.54 L298.979 2230.66 Z" fill="#000000" fill-rule="evenodd" fill-opacity="1" /><path clip-path="url(#clip040)" d="M324.048 2205.06 Q320.437 2205.06 318.608 2208.62 Q316.803 2212.16 316.803 2219.29 Q316.803 2226.4 318.608 2229.97 Q320.437 2233.51 324.048 2233.51 Q327.682 2233.51 329.488 2229.97 Q331.316 2226.4 331.316 2219.29 Q331.316 2212.16 329.488 2208.62 Q327.682 2205.06 324.048 2205.06 M324.048 2201.35 Q329.858 2201.35 332.914 2205.96 Q335.992 2210.54 335.992 2219.29 Q335.992 2228.02 332.914 2232.63 Q329.858 2237.21 324.048 2237.21 Q318.238 2237.21 315.159 2232.63 Q312.104 2228.02 312.104 2219.29 Q312.104 2210.54 315.159 2205.96 Q318.238 2201.35 324.048 2201.35 Z" fill="#000000" fill-rule="evenodd" fill-opacity="1" /><path clip-path="url(#clip040)" d="M354.21 2205.06 Q350.599 2205.06 348.77 2208.62 Q346.964 2212.16 346.964 2219.29 Q346.964 2226.4 348.77 2229.97 Q350.599 2233.51 354.21 2233.51 Q357.844 2233.51 359.65 2229.97 Q361.478 2226.4 361.478 2219.29 Q361.478 2212.16 359.65 2208.62 Q357.844 2205.06 354.21 2205.06 M354.21 2201.35 Q360.02 2201.35 363.076 2205.96 Q366.154 2210.54 366.154 2219.29 Q366.154 2228.02 363.076 2232.63 Q360.02 2237.21 354.21 2237.21 Q348.4 2237.21 345.321 2232.63 Q342.265 2228.02 342.265 2219.29 Q342.265 2210.54 345.321 2205.96 Q348.4 2201.35 354.21 2201.35 Z" fill="#000000" fill-rule="evenodd" fill-opacity="1" /><path clip-path="url(#clip040)" d="M773.709 2205.06 Q770.098 2205.06 768.269 2208.62 Q766.464 2212.16 766.464 2219.29 Q766.464 2226.4 768.269 2229.97 Q770.098 2233.51 773.709 2233.51 Q777.343 2233.51 779.149 2229.97 Q780.978 2226.4 780.978 2219.29 Q780.978 2212.16 779.149 2208.62 Q777.343 2205.06 773.709 2205.06 M773.709 2201.35 Q779.519 2201.35 782.575 2205.96 Q785.653 2210.54 785.653 2219.29 Q785.653 2228.02 782.575 2232.63 Q779.519 2237.21 773.709 2237.21 Q767.899 2237.21 764.82 2232.63 Q761.765 2228.02 761.765 2219.29 Q761.765 2210.54 764.82 2205.96 Q767.899 2201.35 773.709 2201.35 Z" fill="#000000" fill-rule="evenodd" fill-opacity="1" /><path clip-path="url(#clip040)" d="M793.871 2230.66 L798.755 2230.66 L798.755 2236.54 L793.871 2236.54 L793.871 2230.66 Z" fill="#000000" fill-rule="evenodd" fill-opacity="1" /><path clip-path="url(#clip040)" d="M812.968 2232.6 L829.287 2232.6 L829.287 2236.54 L807.343 2236.54 L807.343 2232.6 Q810.005 2229.85 814.588 2225.22 Q819.195 2220.57 820.375 2219.23 Q822.621 2216.7 823.5 2214.97 Q824.403 2213.21 824.403 2211.52 Q824.403 2208.76 822.459 2207.03 Q820.538 2205.29 817.436 2205.29 Q815.237 2205.29 812.783 2206.05 Q810.352 2206.82 807.575 2208.37 L807.575 2203.65 Q810.399 2202.51 812.852 2201.93 Q815.306 2201.35 817.343 2201.35 Q822.713 2201.35 825.908 2204.04 Q829.102 2206.73 829.102 2211.22 Q829.102 2213.35 828.292 2215.27 Q827.505 2217.16 825.399 2219.76 Q824.82 2220.43 821.718 2223.65 Q818.616 2226.84 812.968 2232.6 Z" fill="#000000" fill-rule="evenodd" fill-opacity="1" /><path clip-path="url(#clip040)" d="M839.149 2201.98 L857.505 2201.98 L857.505 2205.92 L843.431 2205.92 L843.431 2214.39 Q844.449 2214.04 845.468 2213.88 Q846.486 2213.69 847.505 2213.69 Q853.292 2213.69 856.672 2216.86 Q860.051 2220.04 860.051 2225.45 Q860.051 2231.03 856.579 2234.13 Q853.107 2237.21 846.787 2237.21 Q844.611 2237.21 842.343 2236.84 Q840.098 2236.47 837.69 2235.73 L837.69 2231.03 Q839.774 2232.16 841.996 2232.72 Q844.218 2233.28 846.695 2233.28 Q850.699 2233.28 853.037 2231.17 Q855.375 2229.06 855.375 2225.45 Q855.375 2221.84 853.037 2219.73 Q850.699 2217.63 846.695 2217.63 Q844.82 2217.63 842.945 2218.04 Q841.093 2218.46 839.149 2219.34 L839.149 2201.98 Z" fill="#000000" fill-rule="evenodd" fill-opacity="1" /><path clip-path="url(#clip040)" d="M1267.61 2205.06 Q1263.99 2205.06 1262.17 2208.62 Q1260.36 2212.16 1260.36 2219.29 Q1260.36 2226.4 1262.17 2229.97 Q1263.99 2233.51 1267.61 2233.51 Q1271.24 2233.51 1273.05 2229.97 Q1274.87 2226.4 1274.87 2219.29 Q1274.87 2212.16 1273.05 2208.62 Q1271.24 2205.06 1267.61 2205.06 M1267.61 2201.35 Q1273.42 2201.35 1276.47 2205.96 Q1279.55 2210.54 1279.55 2219.29 Q1279.55 2228.02 1276.47 2232.63 Q1273.42 2237.21 1267.61 2237.21 Q1261.8 2237.21 1258.72 2232.63 Q1255.66 2228.02 1255.66 2219.29 Q1255.66 2210.54 1258.72 2205.96 Q1261.8 2201.35 1267.61 2201.35 Z" fill="#000000" fill-rule="evenodd" fill-opacity="1" /><path clip-path="url(#clip040)" d="M1287.77 2230.66 L1292.65 2230.66 L1292.65 2236.54 L1287.77 2236.54 L1287.77 2230.66 Z" fill="#000000" fill-rule="evenodd" fill-opacity="1" /><path clip-path="url(#clip040)" d="M1302.88 2201.98 L1321.24 2201.98 L1321.24 2205.92 L1307.17 2205.92 L1307.17 2214.39 Q1308.18 2214.04 1309.2 2213.88 Q1310.22 2213.69 1311.24 2213.69 Q1317.03 2213.69 1320.41 2216.86 Q1323.79 2220.04 1323.79 2225.45 Q1323.79 2231.03 1320.31 2234.13 Q1316.84 2237.21 1310.52 2237.21 Q1308.35 2237.21 1306.08 2236.84 Q1303.83 2236.47 1301.43 2235.73 L1301.43 2231.03 Q1303.51 2232.16 1305.73 2232.72 Q1307.95 2233.28 1310.43 2233.28 Q1314.43 2233.28 1316.77 2231.17 Q1319.11 2229.06 1319.11 2225.45 Q1319.11 2221.84 1316.77 2219.73 Q1314.43 2217.63 1310.43 2217.63 Q1308.55 2217.63 1306.68 2218.04 Q1304.83 2218.46 1302.88 2219.34 L1302.88 2201.98 Z" fill="#000000" fill-rule="evenodd" fill-opacity="1" /><path clip-path="url(#clip040)" d="M1343 2205.06 Q1339.39 2205.06 1337.56 2208.62 Q1335.75 2212.16 1335.75 2219.29 Q1335.75 2226.4 1337.56 2229.97 Q1339.39 2233.51 1343 2233.51 Q1346.63 2233.51 1348.44 2229.97 Q1350.27 2226.4 1350.27 2219.29 Q1350.27 2212.16 1348.44 2208.62 Q1346.63 2205.06 1343 2205.06 M1343 2201.35 Q1348.81 2201.35 1351.86 2205.96 Q1354.94 2210.54 1354.94 2219.29 Q1354.94 2228.02 1351.86 2232.63 Q1348.81 2237.21 1343 2237.21 Q1337.19 2237.21 1334.11 2232.63 Q1331.05 2228.02 1331.05 2219.29 Q1331.05 2210.54 1334.11 2205.96 Q1337.19 2201.35 1343 2201.35 Z" fill="#000000" fill-rule="evenodd" fill-opacity="1" /><path clip-path="url(#clip040)" d="M1762.5 2205.06 Q1758.89 2205.06 1757.06 2208.62 Q1755.25 2212.16 1755.25 2219.29 Q1755.25 2226.4 1757.06 2229.97 Q1758.89 2233.51 1762.5 2233.51 Q1766.13 2233.51 1767.94 2229.97 Q1769.77 2226.4 1769.77 2219.29 Q1769.77 2212.16 1767.94 2208.62 Q1766.13 2205.06 1762.5 2205.06 M1762.5 2201.35 Q1768.31 2201.35 1771.36 2205.96 Q1774.44 2210.54 1774.44 2219.29 Q1774.44 2228.02 1771.36 2232.63 Q1768.31 2237.21 1762.5 2237.21 Q1756.69 2237.21 1753.61 2232.63 Q1750.55 2228.02 1750.55 2219.29 Q1750.55 2210.54 1753.61 2205.96 Q1756.69 2201.35 1762.5 2201.35 Z" fill="#000000" fill-rule="evenodd" fill-opacity="1" /><path clip-path="url(#clip040)" d="M1782.66 2230.66 L1787.54 2230.66 L1787.54 2236.54 L1782.66 2236.54 L1782.66 2230.66 Z" fill="#000000" fill-rule="evenodd" fill-opacity="1" /><path clip-path="url(#clip040)" d="M1796.55 2201.98 L1818.77 2201.98 L1818.77 2203.97 L1806.23 2236.54 L1801.34 2236.54 L1813.15 2205.92 L1796.55 2205.92 L1796.55 2201.98 Z" fill="#000000" fill-rule="evenodd" fill-opacity="1" /><path clip-path="url(#clip040)" d="M1827.94 2201.98 L1846.29 2201.98 L1846.29 2205.92 L1832.22 2205.92 L1832.22 2214.39 Q1833.24 2214.04 1834.26 2213.88 Q1835.28 2213.69 1836.29 2213.69 Q1842.08 2213.69 1845.46 2216.86 Q1848.84 2220.04 1848.84 2225.45 Q1848.84 2231.03 1845.37 2234.13 Q1841.9 2237.21 1835.58 2237.21 Q1833.4 2237.21 1831.13 2236.84 Q1828.89 2236.47 1826.48 2235.73 L1826.48 2231.03 Q1828.56 2232.16 1830.79 2232.72 Q1833.01 2233.28 1835.48 2233.28 Q1839.49 2233.28 1841.83 2231.17 Q1844.16 2229.06 1844.16 2225.45 Q1844.16 2221.84 1841.83 2219.73 Q1839.49 2217.63 1835.48 2217.63 Q1833.61 2217.63 1831.73 2218.04 Q1829.88 2218.46 1827.94 2219.34 L1827.94 2201.98 Z" fill="#000000" fill-rule="evenodd" fill-opacity="1" /><path clip-path="url(#clip040)" d="M2246.16 2232.6 L2253.8 2232.6 L2253.8 2206.24 L2245.49 2207.91 L2245.49 2203.65 L2253.76 2201.98 L2258.43 2201.98 L2258.43 2232.6 L2266.07 2232.6 L2266.07 2236.54 L2246.16 2236.54 L2246.16 2232.6 Z" fill="#000000" fill-rule="evenodd" fill-opacity="1" /><path clip-path="url(#clip040)" d="M2275.52 2230.66 L2280.4 2230.66 L2280.4 2236.54 L2275.52 2236.54 L2275.52 2230.66 Z" fill="#000000" fill-rule="evenodd" fill-opacity="1" /><path clip-path="url(#clip040)" d="M2300.59 2205.06 Q2296.97 2205.06 2295.15 2208.62 Q2293.34 2212.16 2293.34 2219.29 Q2293.34 2226.4 2295.15 2229.97 Q2296.97 2233.51 2300.59 2233.51 Q2304.22 2233.51 2306.02 2229.97 Q2307.85 2226.4 2307.85 2219.29 Q2307.85 2212.16 2306.02 2208.62 Q2304.22 2205.06 2300.59 2205.06 M2300.59 2201.35 Q2306.4 2201.35 2309.45 2205.96 Q2312.53 2210.54 2312.53 2219.29 Q2312.53 2228.02 2309.45 2232.63 Q2306.4 2237.21 2300.59 2237.21 Q2294.77 2237.21 2291.7 2232.63 Q2288.64 2228.02 2288.64 2219.29 Q2288.64 2210.54 2291.7 2205.96 Q2294.77 2201.35 2300.59 2201.35 Z" fill="#000000" fill-rule="evenodd" fill-opacity="1" /><path clip-path="url(#clip040)" d="M2330.75 2205.06 Q2327.14 2205.06 2325.31 2208.62 Q2323.5 2212.16 2323.5 2219.29 Q2323.5 2226.4 2325.31 2229.97 Q2327.14 2233.51 2330.75 2233.51 Q2334.38 2233.51 2336.19 2229.97 Q2338.02 2226.4 2338.02 2219.29 Q2338.02 2212.16 2336.19 2208.62 Q2334.38 2205.06 2330.75 2205.06 M2330.75 2201.35 Q2336.56 2201.35 2339.61 2205.96 Q2342.69 2210.54 2342.69 2219.29 Q2342.69 2228.02 2339.61 2232.63 Q2336.56 2237.21 2330.75 2237.21 Q2324.94 2237.21 2321.86 2232.63 Q2318.8 2228.02 2318.8 2219.29 Q2318.8 2210.54 2321.86 2205.96 Q2324.94 2201.35 2330.75 2201.35 Z" fill="#000000" fill-rule="evenodd" fill-opacity="1" /><path clip-path="url(#clip040)" d="M1164.98 2271.48 L1192.29 2271.48 L1192.29 2276.89 L1171.41 2276.89 L1171.41 2290.9 L1190.25 2290.9 L1190.25 2296.31 L1171.41 2296.31 L1171.41 2319 L1164.98 2319 L1164.98 2271.48 Z" fill="#000000" fill-rule="evenodd" fill-opacity="1" /><path clip-path="url(#clip040)" d="M1229.14 2299.72 L1229.14 2302.58 L1202.22 2302.58 Q1202.6 2308.63 1205.85 2311.81 Q1209.12 2314.96 1214.95 2314.96 Q1218.32 2314.96 1221.47 2314.13 Q1224.66 2313.31 1227.78 2311.65 L1227.78 2317.19 Q1224.63 2318.53 1221.32 2319.23 Q1218 2319.93 1214.6 2319.93 Q1206.07 2319.93 1201.07 2314.96 Q1196.11 2310 1196.11 2301.53 Q1196.11 2292.78 1200.82 2287.65 Q1205.56 2282.5 1213.58 2282.5 Q1220.77 2282.5 1224.94 2287.14 Q1229.14 2291.76 1229.14 2299.72 M1223.29 2298 Q1223.22 2293.19 1220.58 2290.33 Q1217.97 2287.46 1213.64 2287.46 Q1208.74 2287.46 1205.78 2290.23 Q1202.85 2293 1202.41 2298.03 L1223.29 2298 Z" fill="#000000" fill-rule="evenodd" fill-opacity="1" /><path clip-path="url(#clip040)" d="M1254.96 2301.08 Q1247.86 2301.08 1245.12 2302.71 Q1242.39 2304.33 1242.39 2308.25 Q1242.39 2311.36 1244.42 2313.21 Q1246.49 2315.03 1250.02 2315.03 Q1254.89 2315.03 1257.82 2311.59 Q1260.78 2308.12 1260.78 2302.39 L1260.78 2301.08 L1254.96 2301.08 M1266.64 2298.67 L1266.64 2319 L1260.78 2319 L1260.78 2313.59 Q1258.78 2316.84 1255.79 2318.4 Q1252.79 2319.93 1248.46 2319.93 Q1242.99 2319.93 1239.74 2316.87 Q1236.53 2313.78 1236.53 2308.63 Q1236.53 2302.61 1240.54 2299.56 Q1244.58 2296.5 1252.57 2296.5 L1260.78 2296.5 L1260.78 2295.93 Q1260.78 2291.89 1258.11 2289.69 Q1255.47 2287.46 1250.66 2287.46 Q1247.61 2287.46 1244.71 2288.19 Q1241.81 2288.93 1239.14 2290.39 L1239.14 2284.98 Q1242.35 2283.74 1245.38 2283.13 Q1248.4 2282.5 1251.27 2282.5 Q1259 2282.5 1262.82 2286.51 Q1266.64 2290.52 1266.64 2298.67 Z" fill="#000000" fill-rule="evenodd" fill-opacity="1" /><path clip-path="url(#clip040)" d="M1284.49 2273.23 L1284.49 2283.36 L1296.56 2283.36 L1296.56 2287.91 L1284.49 2287.91 L1284.49 2307.26 Q1284.49 2311.62 1285.67 2312.86 Q1286.88 2314.1 1290.54 2314.1 L1296.56 2314.1 L1296.56 2319 L1290.54 2319 Q1283.76 2319 1281.18 2316.49 Q1278.61 2313.94 1278.61 2307.26 L1278.61 2287.91 L1274.31 2287.91 L1274.31 2283.36 L1278.61 2283.36 L1278.61 2273.23 L1284.49 2273.23 Z" fill="#000000" fill-rule="evenodd" fill-opacity="1" /><path clip-path="url(#clip040)" d="M1303.66 2304.94 L1303.66 2283.36 L1309.51 2283.36 L1309.51 2304.71 Q1309.51 2309.77 1311.49 2312.32 Q1313.46 2314.83 1317.41 2314.83 Q1322.15 2314.83 1324.89 2311.81 Q1327.65 2308.79 1327.65 2303.57 L1327.65 2283.36 L1333.51 2283.36 L1333.51 2319 L1327.65 2319 L1327.65 2313.53 Q1325.52 2316.78 1322.69 2318.37 Q1319.89 2319.93 1316.16 2319.93 Q1310.02 2319.93 1306.84 2316.11 Q1303.66 2312.29 1303.66 2304.94 M1318.39 2282.5 L1318.39 2282.5 Z" fill="#000000" fill-rule="evenodd" fill-opacity="1" /><path clip-path="url(#clip040)" d="M1366.23 2288.83 Q1365.24 2288.26 1364.07 2288 Q1362.92 2287.72 1361.52 2287.72 Q1356.55 2287.72 1353.88 2290.96 Q1351.24 2294.18 1351.24 2300.23 L1351.24 2319 L1345.35 2319 L1345.35 2283.36 L1351.24 2283.36 L1351.24 2288.89 Q1353.09 2285.65 1356.05 2284.09 Q1359.01 2282.5 1363.24 2282.5 Q1363.84 2282.5 1364.58 2282.59 Q1365.31 2282.66 1366.2 2282.81 L1366.23 2288.83 Z" fill="#000000" fill-rule="evenodd" fill-opacity="1" /><path clip-path="url(#clip040)" d="M1401.43 2299.72 L1401.43 2302.58 L1374.51 2302.58 Q1374.89 2308.63 1378.13 2311.81 Q1381.41 2314.96 1387.24 2314.96 Q1390.61 2314.96 1393.76 2314.13 Q1396.94 2313.31 1400.06 2311.65 L1400.06 2317.19 Q1396.91 2318.53 1393.6 2319.23 Q1390.29 2319.93 1386.89 2319.93 Q1378.36 2319.93 1373.36 2314.96 Q1368.39 2310 1368.39 2301.53 Q1368.39 2292.78 1373.11 2287.65 Q1377.85 2282.5 1385.87 2282.5 Q1393.06 2282.5 1397.23 2287.14 Q1401.43 2291.76 1401.43 2299.72 M1395.58 2298 Q1395.51 2293.19 1392.87 2290.33 Q1390.26 2287.46 1385.93 2287.46 Q1381.03 2287.46 1378.07 2290.23 Q1375.14 2293 1374.7 2298.03 L1395.58 2298 Z" fill="#000000" fill-rule="evenodd" fill-opacity="1" /><path clip-path="url(#clip040)" d="M1433.71 2313.59 L1444.21 2313.59 L1444.21 2277.34 L1432.78 2279.63 L1432.78 2273.78 L1444.15 2271.48 L1450.58 2271.48 L1450.58 2313.59 L1461.08 2313.59 L1461.08 2319 L1433.71 2319 L1433.71 2313.59 Z" fill="#000000" fill-rule="evenodd" fill-opacity="1" /><polyline clip-path="url(#clip042)" style="stroke:#000000; stroke-linecap:round; stroke-linejoin:round; stroke-width:2; stroke-opacity:0.1; fill:none" points="
  273.302,2144.51 2352.76,2144.51 
  "/>
<polyline clip-path="url(#clip042)" style="stroke:#000000; stroke-linecap:round; stroke-linejoin:round; stroke-width:2; stroke-opacity:0.1; fill:none" points="
  273.302,1656.19 2352.76,1656.19 
  "/>
<polyline clip-path="url(#clip042)" style="stroke:#000000; stroke-linecap:round; stroke-linejoin:round; stroke-width:2; stroke-opacity:0.1; fill:none" points="
  273.302,1167.88 2352.76,1167.88 
  "/>
<polyline clip-path="url(#clip042)" style="stroke:#000000; stroke-linecap:round; stroke-linejoin:round; stroke-width:2; stroke-opacity:0.1; fill:none" points="
  273.302,679.563 2352.76,679.563 
  "/>
<polyline clip-path="url(#clip042)" style="stroke:#000000; stroke-linecap:round; stroke-linejoin:round; stroke-width:2; stroke-opacity:0.1; fill:none" points="
  273.302,191.249 2352.76,191.249 
  "/>
<polyline clip-path="url(#clip040)" style="stroke:#000000; stroke-linecap:round; stroke-linejoin:round; stroke-width:4; stroke-opacity:1; fill:none" points="
  273.302,2174.14 273.302,153.712 
  "/>
<polyline clip-path="url(#clip040)" style="stroke:#000000; stroke-linecap:round; stroke-linejoin:round; stroke-width:4; stroke-opacity:1; fill:none" points="
  273.302,2144.51 292.2,2144.51 
  "/>
<polyline clip-path="url(#clip040)" style="stroke:#000000; stroke-linecap:round; stroke-linejoin:round; stroke-width:4; stroke-opacity:1; fill:none" points="
  273.302,1656.19 292.2,1656.19 
  "/>
<polyline clip-path="url(#clip040)" style="stroke:#000000; stroke-linecap:round; stroke-linejoin:round; stroke-width:4; stroke-opacity:1; fill:none" points="
  273.302,1167.88 292.2,1167.88 
  "/>
<polyline clip-path="url(#clip040)" style="stroke:#000000; stroke-linecap:round; stroke-linejoin:round; stroke-width:4; stroke-opacity:1; fill:none" points="
  273.302,679.563 292.2,679.563 
  "/>
<polyline clip-path="url(#clip040)" style="stroke:#000000; stroke-linecap:round; stroke-linejoin:round; stroke-width:4; stroke-opacity:1; fill:none" points="
  273.302,191.249 292.2,191.249 
  "/>
<path clip-path="url(#clip040)" d="M149.965 2130.3 Q146.353 2130.3 144.525 2133.87 Q142.719 2137.41 142.719 2144.54 Q142.719 2151.65 144.525 2155.21 Q146.353 2158.75 149.965 2158.75 Q153.599 2158.75 155.404 2155.21 Q157.233 2151.65 157.233 2144.54 Q157.233 2137.41 155.404 2133.87 Q153.599 2130.3 149.965 2130.3 M149.965 2126.6 Q155.775 2126.6 158.83 2131.21 Q161.909 2135.79 161.909 2144.54 Q161.909 2153.27 158.83 2157.87 Q155.775 2162.46 149.965 2162.46 Q144.154 2162.46 141.076 2157.87 Q138.02 2153.27 138.02 2144.54 Q138.02 2135.79 141.076 2131.21 Q144.154 2126.6 149.965 2126.6 Z" fill="#000000" fill-rule="evenodd" fill-opacity="1" /><path clip-path="url(#clip040)" d="M170.126 2155.91 L175.011 2155.91 L175.011 2161.79 L170.126 2161.79 L170.126 2155.91 Z" fill="#000000" fill-rule="evenodd" fill-opacity="1" /><path clip-path="url(#clip040)" d="M195.196 2130.3 Q191.585 2130.3 189.756 2133.87 Q187.95 2137.41 187.95 2144.54 Q187.95 2151.65 189.756 2155.21 Q191.585 2158.75 195.196 2158.75 Q198.83 2158.75 200.636 2155.21 Q202.464 2151.65 202.464 2144.54 Q202.464 2137.41 200.636 2133.87 Q198.83 2130.3 195.196 2130.3 M195.196 2126.6 Q201.006 2126.6 204.061 2131.21 Q207.14 2135.79 207.14 2144.54 Q207.14 2153.27 204.061 2157.87 Q201.006 2162.46 195.196 2162.46 Q189.386 2162.46 186.307 2157.87 Q183.251 2153.27 183.251 2144.54 Q183.251 2135.79 186.307 2131.21 Q189.386 2126.6 195.196 2126.6 Z" fill="#000000" fill-rule="evenodd" fill-opacity="1" /><path clip-path="url(#clip040)" d="M225.358 2130.3 Q221.747 2130.3 219.918 2133.87 Q218.112 2137.41 218.112 2144.54 Q218.112 2151.65 219.918 2155.21 Q221.747 2158.75 225.358 2158.75 Q228.992 2158.75 230.797 2155.21 Q232.626 2151.65 232.626 2144.54 Q232.626 2137.41 230.797 2133.87 Q228.992 2130.3 225.358 2130.3 M225.358 2126.6 Q231.168 2126.6 234.223 2131.21 Q237.302 2135.79 237.302 2144.54 Q237.302 2153.27 234.223 2157.87 Q231.168 2162.46 225.358 2162.46 Q219.547 2162.46 216.469 2157.87 Q213.413 2153.27 213.413 2144.54 Q213.413 2135.79 216.469 2131.21 Q219.547 2126.6 225.358 2126.6 Z" fill="#000000" fill-rule="evenodd" fill-opacity="1" /><path clip-path="url(#clip040)" d="M150.96 1641.99 Q147.349 1641.99 145.52 1645.55 Q143.715 1649.1 143.715 1656.23 Q143.715 1663.33 145.52 1666.9 Q147.349 1670.44 150.96 1670.44 Q154.594 1670.44 156.4 1666.9 Q158.228 1663.33 158.228 1656.23 Q158.228 1649.1 156.4 1645.55 Q154.594 1641.99 150.96 1641.99 M150.96 1638.29 Q156.77 1638.29 159.826 1642.89 Q162.904 1647.48 162.904 1656.23 Q162.904 1664.95 159.826 1669.56 Q156.77 1674.14 150.96 1674.14 Q145.15 1674.14 142.071 1669.56 Q139.016 1664.95 139.016 1656.23 Q139.016 1647.48 142.071 1642.89 Q145.15 1638.29 150.96 1638.29 Z" fill="#000000" fill-rule="evenodd" fill-opacity="1" /><path clip-path="url(#clip040)" d="M171.122 1667.59 L176.006 1667.59 L176.006 1673.47 L171.122 1673.47 L171.122 1667.59 Z" fill="#000000" fill-rule="evenodd" fill-opacity="1" /><path clip-path="url(#clip040)" d="M190.219 1669.54 L206.538 1669.54 L206.538 1673.47 L184.594 1673.47 L184.594 1669.54 Q187.256 1666.78 191.839 1662.15 Q196.446 1657.5 197.626 1656.16 Q199.872 1653.63 200.751 1651.9 Q201.654 1650.14 201.654 1648.45 Q201.654 1645.69 199.71 1643.96 Q197.788 1642.22 194.687 1642.22 Q192.487 1642.22 190.034 1642.99 Q187.603 1643.75 184.825 1645.3 L184.825 1640.58 Q187.65 1639.44 190.103 1638.86 Q192.557 1638.29 194.594 1638.29 Q199.964 1638.29 203.159 1640.97 Q206.353 1643.66 206.353 1648.15 Q206.353 1650.28 205.543 1652.2 Q204.756 1654.1 202.649 1656.69 Q202.071 1657.36 198.969 1660.58 Q195.867 1663.77 190.219 1669.54 Z" fill="#000000" fill-rule="evenodd" fill-opacity="1" /><path clip-path="url(#clip040)" d="M216.399 1638.91 L234.756 1638.91 L234.756 1642.85 L220.682 1642.85 L220.682 1651.32 Q221.7 1650.97 222.719 1650.81 Q223.737 1650.62 224.756 1650.62 Q230.543 1650.62 233.922 1653.8 Q237.302 1656.97 237.302 1662.38 Q237.302 1667.96 233.83 1671.06 Q230.358 1674.14 224.038 1674.14 Q221.862 1674.14 219.594 1673.77 Q217.348 1673.4 214.941 1672.66 L214.941 1667.96 Q217.024 1669.1 219.247 1669.65 Q221.469 1670.21 223.946 1670.21 Q227.95 1670.21 230.288 1668.1 Q232.626 1665.99 232.626 1662.38 Q232.626 1658.77 230.288 1656.67 Q227.95 1654.56 223.946 1654.56 Q222.071 1654.56 220.196 1654.98 Q218.344 1655.39 216.399 1656.27 L216.399 1638.91 Z" fill="#000000" fill-rule="evenodd" fill-opacity="1" /><path clip-path="url(#clip040)" d="M149.965 1153.68 Q146.353 1153.68 144.525 1157.24 Q142.719 1160.78 142.719 1167.91 Q142.719 1175.02 144.525 1178.58 Q146.353 1182.12 149.965 1182.12 Q153.599 1182.12 155.404 1178.58 Q157.233 1175.02 157.233 1167.91 Q157.233 1160.78 155.404 1157.24 Q153.599 1153.68 149.965 1153.68 M149.965 1149.97 Q155.775 1149.97 158.83 1154.58 Q161.909 1159.16 161.909 1167.91 Q161.909 1176.64 158.83 1181.25 Q155.775 1185.83 149.965 1185.83 Q144.154 1185.83 141.076 1181.25 Q138.02 1176.64 138.02 1167.91 Q138.02 1159.16 141.076 1154.58 Q144.154 1149.97 149.965 1149.97 Z" fill="#000000" fill-rule="evenodd" fill-opacity="1" /><path clip-path="url(#clip040)" d="M170.126 1179.28 L175.011 1179.28 L175.011 1185.16 L170.126 1185.16 L170.126 1179.28 Z" fill="#000000" fill-rule="evenodd" fill-opacity="1" /><path clip-path="url(#clip040)" d="M185.242 1150.6 L203.599 1150.6 L203.599 1154.53 L189.525 1154.53 L189.525 1163 Q190.543 1162.66 191.562 1162.5 Q192.58 1162.31 193.599 1162.31 Q199.386 1162.31 202.765 1165.48 Q206.145 1168.65 206.145 1174.07 Q206.145 1179.65 202.673 1182.75 Q199.2 1185.83 192.881 1185.83 Q190.705 1185.83 188.437 1185.46 Q186.191 1185.09 183.784 1184.35 L183.784 1179.65 Q185.867 1180.78 188.089 1181.34 Q190.312 1181.89 192.788 1181.89 Q196.793 1181.89 199.131 1179.79 Q201.469 1177.68 201.469 1174.07 Q201.469 1170.46 199.131 1168.35 Q196.793 1166.25 192.788 1166.25 Q190.913 1166.25 189.038 1166.66 Q187.187 1167.08 185.242 1167.96 L185.242 1150.6 Z" fill="#000000" fill-rule="evenodd" fill-opacity="1" /><path clip-path="url(#clip040)" d="M225.358 1153.68 Q221.747 1153.68 219.918 1157.24 Q218.112 1160.78 218.112 1167.91 Q218.112 1175.02 219.918 1178.58 Q221.747 1182.12 225.358 1182.12 Q228.992 1182.12 230.797 1178.58 Q232.626 1175.02 232.626 1167.91 Q232.626 1160.78 230.797 1157.24 Q228.992 1153.68 225.358 1153.68 M225.358 1149.97 Q231.168 1149.97 234.223 1154.58 Q237.302 1159.16 237.302 1167.91 Q237.302 1176.64 234.223 1181.25 Q231.168 1185.83 225.358 1185.83 Q219.547 1185.83 216.469 1181.25 Q213.413 1176.64 213.413 1167.91 Q213.413 1159.16 216.469 1154.58 Q219.547 1149.97 225.358 1149.97 Z" fill="#000000" fill-rule="evenodd" fill-opacity="1" /><path clip-path="url(#clip040)" d="M150.96 665.362 Q147.349 665.362 145.52 668.927 Q143.715 672.468 143.715 679.598 Q143.715 686.704 145.52 690.269 Q147.349 693.811 150.96 693.811 Q154.594 693.811 156.4 690.269 Q158.228 686.704 158.228 679.598 Q158.228 672.468 156.4 668.927 Q154.594 665.362 150.96 665.362 M150.96 661.658 Q156.77 661.658 159.826 666.265 Q162.904 670.848 162.904 679.598 Q162.904 688.325 159.826 692.931 Q156.77 697.515 150.96 697.515 Q145.15 697.515 142.071 692.931 Q139.016 688.325 139.016 679.598 Q139.016 670.848 142.071 666.265 Q145.15 661.658 150.96 661.658 Z" fill="#000000" fill-rule="evenodd" fill-opacity="1" /><path clip-path="url(#clip040)" d="M171.122 690.964 L176.006 690.964 L176.006 696.843 L171.122 696.843 L171.122 690.964 Z" fill="#000000" fill-rule="evenodd" fill-opacity="1" /><path clip-path="url(#clip040)" d="M185.011 662.283 L207.233 662.283 L207.233 664.274 L194.687 696.843 L189.802 696.843 L201.608 666.218 L185.011 666.218 L185.011 662.283 Z" fill="#000000" fill-rule="evenodd" fill-opacity="1" /><path clip-path="url(#clip040)" d="M216.399 662.283 L234.756 662.283 L234.756 666.218 L220.682 666.218 L220.682 674.691 Q221.7 674.343 222.719 674.181 Q223.737 673.996 224.756 673.996 Q230.543 673.996 233.922 677.167 Q237.302 680.339 237.302 685.755 Q237.302 691.334 233.83 694.436 Q230.358 697.515 224.038 697.515 Q221.862 697.515 219.594 697.144 Q217.348 696.774 214.941 696.033 L214.941 691.334 Q217.024 692.468 219.247 693.024 Q221.469 693.579 223.946 693.579 Q227.95 693.579 230.288 691.473 Q232.626 689.367 232.626 685.755 Q232.626 682.144 230.288 680.038 Q227.95 677.931 223.946 677.931 Q222.071 677.931 220.196 678.348 Q218.344 678.765 216.399 679.644 L216.399 662.283 Z" fill="#000000" fill-rule="evenodd" fill-opacity="1" /><path clip-path="url(#clip040)" d="M140.775 204.594 L148.414 204.594 L148.414 178.229 L140.103 179.895 L140.103 175.636 L148.367 173.969 L153.043 173.969 L153.043 204.594 L160.682 204.594 L160.682 208.529 L140.775 208.529 L140.775 204.594 Z" fill="#000000" fill-rule="evenodd" fill-opacity="1" /><path clip-path="url(#clip040)" d="M170.126 202.65 L175.011 202.65 L175.011 208.529 L170.126 208.529 L170.126 202.65 Z" fill="#000000" fill-rule="evenodd" fill-opacity="1" /><path clip-path="url(#clip040)" d="M195.196 177.048 Q191.585 177.048 189.756 180.613 Q187.95 184.154 187.95 191.284 Q187.95 198.39 189.756 201.955 Q191.585 205.497 195.196 205.497 Q198.83 205.497 200.636 201.955 Q202.464 198.39 202.464 191.284 Q202.464 184.154 200.636 180.613 Q198.83 177.048 195.196 177.048 M195.196 173.344 Q201.006 173.344 204.061 177.951 Q207.14 182.534 207.14 191.284 Q207.14 200.011 204.061 204.617 Q201.006 209.201 195.196 209.201 Q189.386 209.201 186.307 204.617 Q183.251 200.011 183.251 191.284 Q183.251 182.534 186.307 177.951 Q189.386 173.344 195.196 173.344 Z" fill="#000000" fill-rule="evenodd" fill-opacity="1" /><path clip-path="url(#clip040)" d="M225.358 177.048 Q221.747 177.048 219.918 180.613 Q218.112 184.154 218.112 191.284 Q218.112 198.39 219.918 201.955 Q221.747 205.497 225.358 205.497 Q228.992 205.497 230.797 201.955 Q232.626 198.39 232.626 191.284 Q232.626 184.154 230.797 180.613 Q228.992 177.048 225.358 177.048 M225.358 173.344 Q231.168 173.344 234.223 177.951 Q237.302 182.534 237.302 191.284 Q237.302 200.011 234.223 204.617 Q231.168 209.201 225.358 209.201 Q219.547 209.201 216.469 204.617 Q213.413 200.011 213.413 191.284 Q213.413 182.534 216.469 177.951 Q219.547 173.344 225.358 173.344 Z" fill="#000000" fill-rule="evenodd" fill-opacity="1" /><path clip-path="url(#clip040)" d="M40.2442 1311.72 L40.2442 1284.41 L45.655 1284.41 L45.655 1305.29 L59.6596 1305.29 L59.6596 1286.45 L65.0704 1286.45 L65.0704 1305.29 L87.7642 1305.29 L87.7642 1311.72 L40.2442 1311.72 Z" fill="#000000" fill-rule="evenodd" fill-opacity="1" /><path clip-path="url(#clip040)" d="M68.4761 1247.56 L71.3406 1247.56 L71.3406 1274.48 Q77.3881 1274.1 80.5709 1270.85 Q83.7219 1267.58 83.7219 1261.75 Q83.7219 1258.38 82.8944 1255.23 Q82.0669 1252.04 80.4118 1248.92 L85.9499 1248.92 Q87.2867 1252.08 87.987 1255.39 Q88.6872 1258.7 88.6872 1262.1 Q88.6872 1270.63 83.7219 1275.63 Q78.7567 1280.59 70.2903 1280.59 Q61.5374 1280.59 56.4131 1275.88 Q51.2568 1271.14 51.2568 1263.12 Q51.2568 1255.93 55.9038 1251.76 Q60.5189 1247.56 68.4761 1247.56 M66.7573 1253.41 Q61.9512 1253.48 59.0866 1256.12 Q56.2221 1258.73 56.2221 1263.06 Q56.2221 1267.96 58.9912 1270.92 Q61.7602 1273.85 66.7892 1274.29 L66.7573 1253.41 Z" fill="#000000" fill-rule="evenodd" fill-opacity="1" /><path clip-path="url(#clip040)" d="M69.8447 1221.74 Q69.8447 1228.84 71.4679 1231.58 Q73.0912 1234.31 77.0061 1234.31 Q80.1253 1234.31 81.9714 1232.28 Q83.7856 1230.21 83.7856 1226.68 Q83.7856 1221.81 80.3481 1218.88 Q76.8788 1215.92 71.1497 1215.92 L69.8447 1215.92 L69.8447 1221.74 M67.4257 1210.06 L87.7642 1210.06 L87.7642 1215.92 L82.3533 1215.92 Q85.5998 1217.92 87.1594 1220.91 Q88.6872 1223.91 88.6872 1228.24 Q88.6872 1233.71 85.6316 1236.96 Q82.5443 1240.17 77.3881 1240.17 Q71.3725 1240.17 68.3169 1236.16 Q65.2614 1232.12 65.2614 1224.13 L65.2614 1215.92 L64.6885 1215.92 Q60.6462 1215.92 58.4501 1218.59 Q56.2221 1221.23 56.2221 1226.04 Q56.2221 1229.09 56.9541 1231.99 Q57.6862 1234.89 59.1503 1237.56 L53.7395 1237.56 Q52.4981 1234.35 51.8934 1231.32 Q51.2568 1228.3 51.2568 1225.43 Q51.2568 1217.7 55.2672 1213.88 Q59.2776 1210.06 67.4257 1210.06 Z" fill="#000000" fill-rule="evenodd" fill-opacity="1" /><path clip-path="url(#clip040)" d="M41.9947 1192.21 L52.1162 1192.21 L52.1162 1180.14 L56.6677 1180.14 L56.6677 1192.21 L76.0194 1192.21 Q80.3799 1192.21 81.6213 1191.03 Q82.8626 1189.82 82.8626 1186.16 L82.8626 1180.14 L87.7642 1180.14 L87.7642 1186.16 Q87.7642 1192.94 85.2497 1195.52 Q82.7034 1198.09 76.0194 1198.09 L56.6677 1198.09 L56.6677 1202.39 L52.1162 1202.39 L52.1162 1198.09 L41.9947 1198.09 L41.9947 1192.21 Z" fill="#000000" fill-rule="evenodd" fill-opacity="1" /><path clip-path="url(#clip040)" d="M73.6959 1173.04 L52.1162 1173.04 L52.1162 1167.19 L73.4731 1167.19 Q78.5339 1167.19 81.0802 1165.22 Q83.5946 1163.24 83.5946 1159.29 Q83.5946 1154.55 80.5709 1151.82 Q77.5472 1149.05 72.3273 1149.05 L52.1162 1149.05 L52.1162 1143.19 L87.7642 1143.19 L87.7642 1149.05 L82.2896 1149.05 Q85.5362 1151.18 87.1276 1154.01 Q88.6872 1156.81 88.6872 1160.54 Q88.6872 1166.68 84.8678 1169.86 Q81.0483 1173.04 73.6959 1173.04 M51.2568 1158.31 L51.2568 1158.31 Z" fill="#000000" fill-rule="evenodd" fill-opacity="1" /><path clip-path="url(#clip040)" d="M57.5907 1110.47 Q57.0178 1111.46 56.7632 1112.63 Q56.4767 1113.78 56.4767 1115.18 Q56.4767 1120.15 59.7232 1122.82 Q62.9379 1125.46 68.9853 1125.46 L87.7642 1125.46 L87.7642 1131.35 L52.1162 1131.35 L52.1162 1125.46 L57.6544 1125.46 Q54.4079 1123.62 52.8483 1120.66 Q51.2568 1117.7 51.2568 1113.46 Q51.2568 1112.86 51.3523 1112.13 Q51.416 1111.39 51.5751 1110.5 L57.5907 1110.47 Z" fill="#000000" fill-rule="evenodd" fill-opacity="1" /><path clip-path="url(#clip040)" d="M68.4761 1075.27 L71.3406 1075.27 L71.3406 1102.19 Q77.3881 1101.81 80.5709 1098.57 Q83.7219 1095.29 83.7219 1089.46 Q83.7219 1086.09 82.8944 1082.94 Q82.0669 1079.76 80.4118 1076.64 L85.9499 1076.64 Q87.2867 1079.79 87.987 1083.1 Q88.6872 1086.41 88.6872 1089.81 Q88.6872 1098.34 83.7219 1103.34 Q78.7567 1108.31 70.2903 1108.31 Q61.5374 1108.31 56.4131 1103.59 Q51.2568 1098.85 51.2568 1090.83 Q51.2568 1083.64 55.9038 1079.47 Q60.5189 1075.27 68.4761 1075.27 M66.7573 1081.12 Q61.9512 1081.19 59.0866 1083.83 Q56.2221 1086.44 56.2221 1090.77 Q56.2221 1095.67 58.9912 1098.63 Q61.7602 1101.56 66.7892 1102 L66.7573 1081.12 Z" fill="#000000" fill-rule="evenodd" fill-opacity="1" /><path clip-path="url(#clip040)" d="M82.3533 1038.57 L82.3533 1016.13 L87.7642 1016.13 L87.7642 1046.3 L82.3533 1046.3 Q78.5657 1042.64 72.2 1036.34 Q65.8025 1030.01 63.9564 1028.38 Q60.4871 1025.3 58.1 1024.09 Q55.681 1022.85 53.3575 1022.85 Q49.5699 1022.85 47.1828 1025.52 Q44.7956 1028.16 44.7956 1032.43 Q44.7956 1035.45 45.846 1038.82 Q46.8963 1042.17 49.0288 1045.99 L42.5358 1045.99 Q40.9762 1042.1 40.1805 1038.73 Q39.3848 1035.35 39.3848 1032.55 Q39.3848 1025.17 43.0769 1020.78 Q46.769 1016.38 52.9437 1016.38 Q55.872 1016.38 58.5137 1017.5 Q61.1237 1018.58 64.6885 1021.48 Q65.6115 1022.27 70.0357 1026.54 Q74.428 1030.8 82.3533 1038.57 Z" fill="#000000" fill-rule="evenodd" fill-opacity="1" /><path clip-path="url(#clip040)" d="M852.32 9.54393 L859.814 9.54393 L859.814 46.7717 L882.053 27.2059 L891.573 27.2059 L867.511 48.4326 L892.586 72.576 L882.863 72.576 L859.814 50.4176 L859.814 72.576 L852.32 72.576 L852.32 9.54393 Z" fill="#000000" fill-rule="evenodd" fill-opacity="1" /><path clip-path="url(#clip040)" d="M896.88 46.5287 L918.714 46.5287 L918.714 53.1722 L896.88 53.1722 L896.88 46.5287 Z" fill="#000000" fill-rule="evenodd" fill-opacity="1" /><path clip-path="url(#clip040)" d="M930.907 12.096 L941.926 12.096 L968.743 62.6918 L968.743 12.096 L976.682 12.096 L976.682 72.576 L965.664 72.576 L938.847 21.9802 L938.847 72.576 L930.907 72.576 L930.907 12.096 Z" fill="#000000" fill-rule="evenodd" fill-opacity="1" /><path clip-path="url(#clip040)" d="M992.967 12.096 L1003.99 12.096 L1030.8 62.6918 L1030.8 12.096 L1038.74 12.096 L1038.74 72.576 L1027.72 72.576 L1000.91 21.9802 L1000.91 72.576 L992.967 72.576 L992.967 12.096 Z" fill="#000000" fill-rule="evenodd" fill-opacity="1" /><path clip-path="url(#clip040)" d="M1093.43 40.0472 Q1089.74 43.3285 1088 46.6097 Q1086.3 49.8504 1086.3 53.4152 Q1086.3 59.3295 1090.59 63.2589 Q1094.89 67.1883 1101.37 67.1883 Q1105.22 67.1883 1108.58 65.9325 Q1111.94 64.6362 1114.9 62.0436 L1093.43 40.0472 M1099.14 35.5102 L1119.72 56.5749 Q1122.11 52.9696 1123.45 48.8782 Q1124.78 44.7463 1125.03 40.1283 L1132.56 40.1283 Q1132.08 45.4755 1129.97 50.7011 Q1127.86 55.9268 1124.09 61.0309 L1135.4 72.576 L1125.19 72.576 L1119.4 66.6212 Q1115.18 70.2265 1110.56 72.0089 Q1105.95 73.7508 1100.64 73.7508 Q1090.88 73.7508 1084.68 68.201 Q1078.48 62.6108 1078.48 53.9013 Q1078.48 48.7162 1081.2 44.1792 Q1083.91 39.6016 1089.34 35.5912 Q1087.39 33.0392 1086.38 30.5276 Q1085.37 27.9755 1085.37 25.545 Q1085.37 18.9825 1089.86 15.0127 Q1094.36 11.0023 1101.81 11.0023 Q1105.18 11.0023 1108.5 11.7314 Q1111.86 12.4606 1115.3 13.9189 L1115.3 21.2916 Q1111.78 19.3876 1108.58 18.4154 Q1105.38 17.4027 1102.63 17.4027 Q1098.37 17.4027 1095.7 19.6712 Q1093.06 21.8992 1093.06 25.464 Q1093.06 27.5299 1094.24 29.6364 Q1095.45 31.7024 1099.14 35.5102 Z" fill="#000000" fill-rule="evenodd" fill-opacity="1" /><path clip-path="url(#clip040)" d="M1171.85 9.54393 L1179.35 9.54393 L1179.35 46.7717 L1201.59 27.2059 L1211.11 27.2059 L1187.05 48.4326 L1212.12 72.576 L1202.4 72.576 L1179.35 50.4176 L1179.35 72.576 L1171.85 72.576 L1171.85 9.54393 Z" fill="#000000" fill-rule="evenodd" fill-opacity="1" /><path clip-path="url(#clip040)" d="M1216.41 46.5287 L1238.25 46.5287 L1238.25 53.1722 L1216.41 53.1722 L1216.41 46.5287 Z" fill="#000000" fill-rule="evenodd" fill-opacity="1" /><path clip-path="url(#clip040)" d="M1258.63 18.8205 L1258.63 65.8515 L1268.51 65.8515 Q1281.03 65.8515 1286.82 60.1802 Q1292.65 54.509 1292.65 42.2752 Q1292.65 30.1225 1286.82 24.4918 Q1281.03 18.8205 1268.51 18.8205 L1258.63 18.8205 M1250.44 12.096 L1267.25 12.096 Q1284.83 12.096 1293.06 19.4281 Q1301.28 26.7198 1301.28 42.2752 Q1301.28 57.9117 1293.02 65.2439 Q1284.75 72.576 1267.25 72.576 L1250.44 72.576 L1250.44 12.096 Z" fill="#000000" fill-rule="evenodd" fill-opacity="1" /><path clip-path="url(#clip040)" d="M1332.31 12.096 L1383.47 12.096 L1383.47 18.9825 L1362 18.9825 L1362 72.576 L1353.78 72.576 L1353.78 18.9825 L1332.31 18.9825 L1332.31 12.096 Z" fill="#000000" fill-rule="evenodd" fill-opacity="1" /><path clip-path="url(#clip040)" d="M1405.15 34.1734 Q1403.89 33.4443 1402.39 33.1202 Q1400.93 32.7556 1399.15 32.7556 Q1392.83 32.7556 1389.43 36.8875 Q1386.07 40.9789 1386.07 48.6757 L1386.07 72.576 L1378.57 72.576 L1378.57 27.2059 L1386.07 27.2059 L1386.07 34.2544 Q1388.42 30.1225 1392.18 28.1376 Q1395.95 26.1121 1401.34 26.1121 Q1402.11 26.1121 1403.04 26.2337 Q1403.97 26.3147 1405.11 26.5172 L1405.15 34.1734 Z" fill="#000000" fill-rule="evenodd" fill-opacity="1" /><path clip-path="url(#clip040)" d="M1449.95 48.0275 L1449.95 51.6733 L1415.68 51.6733 Q1416.16 59.3701 1420.3 63.421 Q1424.47 67.4314 1431.88 67.4314 Q1436.18 67.4314 1440.19 66.3781 Q1444.24 65.3249 1448.21 63.2184 L1448.21 70.267 Q1444.2 71.9684 1439.98 72.8596 Q1435.77 73.7508 1431.44 73.7508 Q1420.58 73.7508 1414.22 67.4314 Q1407.9 61.1119 1407.9 50.3365 Q1407.9 39.1965 1413.9 32.6746 Q1419.93 26.1121 1430.14 26.1121 Q1439.3 26.1121 1444.6 32.0264 Q1449.95 37.9003 1449.95 48.0275 M1442.5 45.84 Q1442.41 39.7232 1439.05 36.0774 Q1435.73 32.4315 1430.22 32.4315 Q1423.98 32.4315 1420.22 35.9558 Q1416.49 39.4801 1415.92 45.8805 L1442.5 45.84 Z" fill="#000000" fill-rule="evenodd" fill-opacity="1" /><path clip-path="url(#clip040)" d="M1500.99 48.0275 L1500.99 51.6733 L1466.72 51.6733 Q1467.21 59.3701 1471.34 63.421 Q1475.51 67.4314 1482.92 67.4314 Q1487.22 67.4314 1491.23 66.3781 Q1495.28 65.3249 1499.25 63.2184 L1499.25 70.267 Q1495.24 71.9684 1491.03 72.8596 Q1486.81 73.7508 1482.48 73.7508 Q1471.62 73.7508 1465.26 67.4314 Q1458.94 61.1119 1458.94 50.3365 Q1458.94 39.1965 1464.94 32.6746 Q1470.97 26.1121 1481.18 26.1121 Q1490.34 26.1121 1495.64 32.0264 Q1500.99 37.9003 1500.99 48.0275 M1493.54 45.84 Q1493.46 39.7232 1490.09 36.0774 Q1486.77 32.4315 1481.26 32.4315 Q1475.02 32.4315 1471.26 35.9558 Q1467.53 39.4801 1466.96 45.8805 L1493.54 45.84 Z" fill="#000000" fill-rule="evenodd" fill-opacity="1" /><path clip-path="url(#clip040)" d="M1548.1 18.8205 L1548.1 65.8515 L1557.99 65.8515 Q1570.5 65.8515 1576.3 60.1802 Q1582.13 54.509 1582.13 42.2752 Q1582.13 30.1225 1576.3 24.4918 Q1570.5 18.8205 1557.99 18.8205 L1548.1 18.8205 M1539.92 12.096 L1556.73 12.096 Q1574.31 12.096 1582.54 19.4281 Q1590.76 26.7198 1590.76 42.2752 Q1590.76 57.9117 1582.5 65.2439 Q1574.23 72.576 1556.73 72.576 L1539.92 72.576 L1539.92 12.096 Z" fill="#000000" fill-rule="evenodd" fill-opacity="1" /><path clip-path="url(#clip040)" d="M1642.29 48.0275 L1642.29 51.6733 L1608.02 51.6733 Q1608.5 59.3701 1612.63 63.421 Q1616.81 67.4314 1624.22 67.4314 Q1628.51 67.4314 1632.52 66.3781 Q1636.57 65.3249 1640.54 63.2184 L1640.54 70.267 Q1636.53 71.9684 1632.32 72.8596 Q1628.11 73.7508 1623.77 73.7508 Q1612.92 73.7508 1606.56 67.4314 Q1600.24 61.1119 1600.24 50.3365 Q1600.24 39.1965 1606.23 32.6746 Q1612.27 26.1121 1622.48 26.1121 Q1631.63 26.1121 1636.94 32.0264 Q1642.29 37.9003 1642.29 48.0275 M1634.83 45.84 Q1634.75 39.7232 1631.39 36.0774 Q1628.07 32.4315 1622.56 32.4315 Q1616.32 32.4315 1612.55 35.9558 Q1608.83 39.4801 1608.26 45.8805 L1634.83 45.84 Z" fill="#000000" fill-rule="evenodd" fill-opacity="1" /><path clip-path="url(#clip040)" d="M1689.84 35.9153 Q1692.64 30.8922 1696.53 28.5022 Q1700.42 26.1121 1705.68 26.1121 Q1712.77 26.1121 1716.62 31.0947 Q1720.47 36.0368 1720.47 45.1919 L1720.47 72.576 L1712.97 72.576 L1712.97 45.4349 Q1712.97 38.913 1710.67 35.7533 Q1708.36 32.5936 1703.62 32.5936 Q1697.82 32.5936 1694.46 36.4419 Q1691.1 40.2903 1691.1 46.9338 L1691.1 72.576 L1683.61 72.576 L1683.61 45.4349 Q1683.61 38.8725 1681.3 35.7533 Q1678.99 32.5936 1674.17 32.5936 Q1668.46 32.5936 1665.09 36.4824 Q1661.73 40.3308 1661.73 46.9338 L1661.73 72.576 L1654.24 72.576 L1654.24 27.2059 L1661.73 27.2059 L1661.73 34.2544 Q1664.28 30.082 1667.85 28.0971 Q1671.41 26.1121 1676.31 26.1121 Q1681.26 26.1121 1684.7 28.6237 Q1688.18 31.1352 1689.84 35.9153 Z" fill="#000000" fill-rule="evenodd" fill-opacity="1" /><path clip-path="url(#clip040)" d="M1752.92 32.4315 Q1746.92 32.4315 1743.44 37.1306 Q1739.95 41.7891 1739.95 49.9314 Q1739.95 58.0738 1743.4 62.7728 Q1746.88 67.4314 1752.92 67.4314 Q1758.87 67.4314 1762.36 62.7323 Q1765.84 58.0333 1765.84 49.9314 Q1765.84 41.8701 1762.36 37.1711 Q1758.87 32.4315 1752.92 32.4315 M1752.92 26.1121 Q1762.64 26.1121 1768.19 32.4315 Q1773.74 38.7509 1773.74 49.9314 Q1773.74 61.0714 1768.19 67.4314 Q1762.64 73.7508 1752.92 73.7508 Q1743.15 73.7508 1737.6 67.4314 Q1732.1 61.0714 1732.1 49.9314 Q1732.1 38.7509 1737.6 32.4315 Q1743.15 26.1121 1752.92 26.1121 Z" fill="#000000" fill-rule="evenodd" fill-opacity="1" /><circle clip-path="url(#clip042)" cx="783.288" cy="1873.47" r="14.4" fill="#0000ff" fill-rule="evenodd" fill-opacity="1" stroke="#000000" stroke-opacity="1" stroke-width="4.8"/>
<circle clip-path="url(#clip042)" cx="1001.78" cy="1252.95" r="14.4" fill="#0000ff" fill-rule="evenodd" fill-opacity="1" stroke="#000000" stroke-opacity="1" stroke-width="4.8"/>
<circle clip-path="url(#clip042)" cx="934.916" cy="699.256" r="14.4" fill="#0000ff" fill-rule="evenodd" fill-opacity="1" stroke="#000000" stroke-opacity="1" stroke-width="4.8"/>
<circle clip-path="url(#clip042)" cx="332.155" cy="550.641" r="14.4" fill="#0000ff" fill-rule="evenodd" fill-opacity="1" stroke="#000000" stroke-opacity="1" stroke-width="4.8"/>
<circle clip-path="url(#clip042)" cx="1282.78" cy="1920.8" r="14.4" fill="#0000ff" fill-rule="evenodd" fill-opacity="1" stroke="#000000" stroke-opacity="1" stroke-width="4.8"/>
<circle clip-path="url(#clip042)" cx="733.719" cy="681.658" r="14.4" fill="#0000ff" fill-rule="evenodd" fill-opacity="1" stroke="#000000" stroke-opacity="1" stroke-width="4.8"/>
<circle clip-path="url(#clip042)" cx="2199" cy="429.335" r="14.4" fill="#0000ff" fill-rule="evenodd" fill-opacity="1" stroke="#000000" stroke-opacity="1" stroke-width="4.8"/>
<circle clip-path="url(#clip042)" cx="2293.9" cy="327.038" r="14.4" fill="#0000ff" fill-rule="evenodd" fill-opacity="1" stroke="#000000" stroke-opacity="1" stroke-width="4.8"/>
<circle clip-path="url(#clip042)" cx="814.195" cy="393.82" r="14.4" fill="#0000ff" fill-rule="evenodd" fill-opacity="1" stroke="#000000" stroke-opacity="1" stroke-width="4.8"/>
<circle clip-path="url(#clip042)" cx="2267.72" cy="849.213" r="14.4" fill="#0000ff" fill-rule="evenodd" fill-opacity="1" stroke="#000000" stroke-opacity="1" stroke-width="4.8"/>
<circle clip-path="url(#clip042)" cx="1415.55" cy="1221.01" r="14.4" fill="#0000ff" fill-rule="evenodd" fill-opacity="1" stroke="#000000" stroke-opacity="1" stroke-width="4.8"/>
<circle clip-path="url(#clip042)" cx="1180.93" cy="424.614" r="14.4" fill="#0000ff" fill-rule="evenodd" fill-opacity="1" stroke="#000000" stroke-opacity="1" stroke-width="4.8"/>
<circle clip-path="url(#clip042)" cx="1156.43" cy="2116.96" r="14.4" fill="#0000ff" fill-rule="evenodd" fill-opacity="1" stroke="#000000" stroke-opacity="1" stroke-width="4.8"/>
<circle clip-path="url(#clip042)" cx="1845.62" cy="1162.46" r="14.4" fill="#0000ff" fill-rule="evenodd" fill-opacity="1" stroke="#000000" stroke-opacity="1" stroke-width="4.8"/>
<circle clip-path="url(#clip042)" cx="872.589" cy="1705.31" r="14.4" fill="#0000ff" fill-rule="evenodd" fill-opacity="1" stroke="#000000" stroke-opacity="1" stroke-width="4.8"/>
<circle clip-path="url(#clip042)" cx="730.761" cy="1582.25" r="14.4" fill="#0000ff" fill-rule="evenodd" fill-opacity="1" stroke="#000000" stroke-opacity="1" stroke-width="4.8"/>
<circle clip-path="url(#clip042)" cx="813.635" cy="1941.3" r="14.4" fill="#0000ff" fill-rule="evenodd" fill-opacity="1" stroke="#000000" stroke-opacity="1" stroke-width="4.8"/>
<circle clip-path="url(#clip042)" cx="356.806" cy="1215.25" r="14.4" fill="#0000ff" fill-rule="evenodd" fill-opacity="1" stroke="#000000" stroke-opacity="1" stroke-width="4.8"/>
<circle clip-path="url(#clip042)" cx="885.466" cy="1330.62" r="14.4" fill="#0000ff" fill-rule="evenodd" fill-opacity="1" stroke="#000000" stroke-opacity="1" stroke-width="4.8"/>
<circle clip-path="url(#clip042)" cx="2016.27" cy="1126.1" r="14.4" fill="#0000ff" fill-rule="evenodd" fill-opacity="1" stroke="#000000" stroke-opacity="1" stroke-width="4.8"/>
<circle clip-path="url(#clip042)" cx="468.69" cy="369.975" r="14.4" fill="#0000ff" fill-rule="evenodd" fill-opacity="1" stroke="#000000" stroke-opacity="1" stroke-width="4.8"/>
<circle clip-path="url(#clip042)" cx="1582.95" cy="1943.65" r="14.4" fill="#0000ff" fill-rule="evenodd" fill-opacity="1" stroke="#000000" stroke-opacity="1" stroke-width="4.8"/>
<circle clip-path="url(#clip042)" cx="2044.02" cy="835.002" r="14.4" fill="#0000ff" fill-rule="evenodd" fill-opacity="1" stroke="#000000" stroke-opacity="1" stroke-width="4.8"/>
<circle clip-path="url(#clip042)" cx="867.432" cy="668.986" r="14.4" fill="#0000ff" fill-rule="evenodd" fill-opacity="1" stroke="#000000" stroke-opacity="1" stroke-width="4.8"/>
<circle clip-path="url(#clip042)" cx="1802.29" cy="876.732" r="14.4" fill="#0000ff" fill-rule="evenodd" fill-opacity="1" stroke="#000000" stroke-opacity="1" stroke-width="4.8"/>
<circle clip-path="url(#clip042)" cx="1591.82" cy="854.574" r="14.4" fill="#0000ff" fill-rule="evenodd" fill-opacity="1" stroke="#000000" stroke-opacity="1" stroke-width="4.8"/>
<circle clip-path="url(#clip042)" cx="470.421" cy="374.444" r="14.4" fill="#0000ff" fill-rule="evenodd" fill-opacity="1" stroke="#000000" stroke-opacity="1" stroke-width="4.8"/>
<circle clip-path="url(#clip042)" cx="1993.87" cy="1606.55" r="14.4" fill="#0000ff" fill-rule="evenodd" fill-opacity="1" stroke="#000000" stroke-opacity="1" stroke-width="4.8"/>
<circle clip-path="url(#clip042)" cx="485.864" cy="445.318" r="14.4" fill="#0000ff" fill-rule="evenodd" fill-opacity="1" stroke="#000000" stroke-opacity="1" stroke-width="4.8"/>
<circle clip-path="url(#clip042)" cx="1410.52" cy="1867.84" r="14.4" fill="#0000ff" fill-rule="evenodd" fill-opacity="1" stroke="#000000" stroke-opacity="1" stroke-width="4.8"/>
<circle clip-path="url(#clip042)" cx="1232.82" cy="249.638" r="14.4" fill="#0000ff" fill-rule="evenodd" fill-opacity="1" stroke="#000000" stroke-opacity="1" stroke-width="4.8"/>
<circle clip-path="url(#clip042)" cx="683.99" cy="439.007" r="14.4" fill="#0000ff" fill-rule="evenodd" fill-opacity="1" stroke="#000000" stroke-opacity="1" stroke-width="4.8"/>
<circle clip-path="url(#clip042)" cx="537.964" cy="1686.78" r="14.4" fill="#0000ff" fill-rule="evenodd" fill-opacity="1" stroke="#000000" stroke-opacity="1" stroke-width="4.8"/>
<circle clip-path="url(#clip042)" cx="2247.25" cy="636.562" r="14.4" fill="#0000ff" fill-rule="evenodd" fill-opacity="1" stroke="#000000" stroke-opacity="1" stroke-width="4.8"/>
<circle clip-path="url(#clip042)" cx="418.585" cy="1001" r="14.4" fill="#0000ff" fill-rule="evenodd" fill-opacity="1" stroke="#000000" stroke-opacity="1" stroke-width="4.8"/>
<circle clip-path="url(#clip042)" cx="1380.51" cy="1070.02" r="14.4" fill="#0000ff" fill-rule="evenodd" fill-opacity="1" stroke="#000000" stroke-opacity="1" stroke-width="4.8"/>
<circle clip-path="url(#clip042)" cx="1217.68" cy="1220.17" r="14.4" fill="#0000ff" fill-rule="evenodd" fill-opacity="1" stroke="#000000" stroke-opacity="1" stroke-width="4.8"/>
<circle clip-path="url(#clip042)" cx="869.039" cy="648.262" r="14.4" fill="#0000ff" fill-rule="evenodd" fill-opacity="1" stroke="#000000" stroke-opacity="1" stroke-width="4.8"/>
<circle clip-path="url(#clip042)" cx="669.009" cy="438.067" r="14.4" fill="#0000ff" fill-rule="evenodd" fill-opacity="1" stroke="#000000" stroke-opacity="1" stroke-width="4.8"/>
<circle clip-path="url(#clip042)" cx="1402.17" cy="1208.46" r="14.4" fill="#0000ff" fill-rule="evenodd" fill-opacity="1" stroke="#000000" stroke-opacity="1" stroke-width="4.8"/>
<circle clip-path="url(#clip042)" cx="1050.14" cy="1441.95" r="14.4" fill="#0000ff" fill-rule="evenodd" fill-opacity="1" stroke="#000000" stroke-opacity="1" stroke-width="4.8"/>
<circle clip-path="url(#clip042)" cx="2084.8" cy="955.284" r="14.4" fill="#0000ff" fill-rule="evenodd" fill-opacity="1" stroke="#000000" stroke-opacity="1" stroke-width="4.8"/>
<circle clip-path="url(#clip042)" cx="1598.09" cy="210.894" r="14.4" fill="#0000ff" fill-rule="evenodd" fill-opacity="1" stroke="#000000" stroke-opacity="1" stroke-width="4.8"/>
<circle clip-path="url(#clip042)" cx="1141.24" cy="832.1" r="14.4" fill="#0000ff" fill-rule="evenodd" fill-opacity="1" stroke="#000000" stroke-opacity="1" stroke-width="4.8"/>
<circle clip-path="url(#clip042)" cx="602.403" cy="1472.8" r="14.4" fill="#0000ff" fill-rule="evenodd" fill-opacity="1" stroke="#000000" stroke-opacity="1" stroke-width="4.8"/>
<circle clip-path="url(#clip042)" cx="1547.36" cy="1989.56" r="14.4" fill="#0000ff" fill-rule="evenodd" fill-opacity="1" stroke="#000000" stroke-opacity="1" stroke-width="4.8"/>
<circle clip-path="url(#clip042)" cx="2041.62" cy="1804.67" r="14.4" fill="#0000ff" fill-rule="evenodd" fill-opacity="1" stroke="#000000" stroke-opacity="1" stroke-width="4.8"/>
<circle clip-path="url(#clip042)" cx="1354.69" cy="353.381" r="14.4" fill="#0000ff" fill-rule="evenodd" fill-opacity="1" stroke="#000000" stroke-opacity="1" stroke-width="4.8"/>
<circle clip-path="url(#clip042)" cx="794.278" cy="395.503" r="14.4" fill="#0000ff" fill-rule="evenodd" fill-opacity="1" stroke="#000000" stroke-opacity="1" stroke-width="4.8"/>
<circle clip-path="url(#clip042)" cx="2066.35" cy="235.935" r="14.4" fill="#0000ff" fill-rule="evenodd" fill-opacity="1" stroke="#000000" stroke-opacity="1" stroke-width="4.8"/>
<circle clip-path="url(#clip042)" cx="1188.42" cy="1117.95" r="14.4" fill="#0000ff" fill-rule="evenodd" fill-opacity="1" stroke="#000000" stroke-opacity="1" stroke-width="4.8"/>
<circle clip-path="url(#clip042)" cx="1116.79" cy="583.367" r="14.4" fill="#0000ff" fill-rule="evenodd" fill-opacity="1" stroke="#000000" stroke-opacity="1" stroke-width="4.8"/>
<circle clip-path="url(#clip042)" cx="1773.57" cy="1864.36" r="14.4" fill="#0000ff" fill-rule="evenodd" fill-opacity="1" stroke="#000000" stroke-opacity="1" stroke-width="4.8"/>
<circle clip-path="url(#clip042)" cx="2202.73" cy="1694.77" r="14.4" fill="#0000ff" fill-rule="evenodd" fill-opacity="1" stroke="#000000" stroke-opacity="1" stroke-width="4.8"/>
<circle clip-path="url(#clip042)" cx="504.75" cy="799.891" r="14.4" fill="#0000ff" fill-rule="evenodd" fill-opacity="1" stroke="#000000" stroke-opacity="1" stroke-width="4.8"/>
<circle clip-path="url(#clip042)" cx="1344.21" cy="1616.35" r="14.4" fill="#0000ff" fill-rule="evenodd" fill-opacity="1" stroke="#000000" stroke-opacity="1" stroke-width="4.8"/>
<circle clip-path="url(#clip042)" cx="343.29" cy="2025.67" r="14.4" fill="#0000ff" fill-rule="evenodd" fill-opacity="1" stroke="#000000" stroke-opacity="1" stroke-width="4.8"/>
<circle clip-path="url(#clip042)" cx="916.508" cy="897.62" r="14.4" fill="#0000ff" fill-rule="evenodd" fill-opacity="1" stroke="#000000" stroke-opacity="1" stroke-width="4.8"/>
<circle clip-path="url(#clip042)" cx="1705.88" cy="1493.16" r="14.4" fill="#0000ff" fill-rule="evenodd" fill-opacity="1" stroke="#000000" stroke-opacity="1" stroke-width="4.8"/>
<circle clip-path="url(#clip042)" cx="1496.21" cy="1037.4" r="14.4" fill="#0000ff" fill-rule="evenodd" fill-opacity="1" stroke="#000000" stroke-opacity="1" stroke-width="4.8"/>
<circle clip-path="url(#clip042)" cx="1580.06" cy="801.02" r="14.4" fill="#0000ff" fill-rule="evenodd" fill-opacity="1" stroke="#000000" stroke-opacity="1" stroke-width="4.8"/>
<circle clip-path="url(#clip042)" cx="2041.65" cy="1877.49" r="14.4" fill="#0000ff" fill-rule="evenodd" fill-opacity="1" stroke="#000000" stroke-opacity="1" stroke-width="4.8"/>
<circle clip-path="url(#clip042)" cx="1401.48" cy="1440.07" r="14.4" fill="#0000ff" fill-rule="evenodd" fill-opacity="1" stroke="#000000" stroke-opacity="1" stroke-width="4.8"/>
<circle clip-path="url(#clip042)" cx="836.601" cy="481.081" r="14.4" fill="#0000ff" fill-rule="evenodd" fill-opacity="1" stroke="#000000" stroke-opacity="1" stroke-width="4.8"/>
<circle clip-path="url(#clip042)" cx="1357.6" cy="1215.85" r="14.4" fill="#0000ff" fill-rule="evenodd" fill-opacity="1" stroke="#000000" stroke-opacity="1" stroke-width="4.8"/>
<circle clip-path="url(#clip042)" cx="1236.13" cy="391.588" r="14.4" fill="#0000ff" fill-rule="evenodd" fill-opacity="1" stroke="#000000" stroke-opacity="1" stroke-width="4.8"/>
<circle clip-path="url(#clip042)" cx="861.374" cy="1967.38" r="14.4" fill="#0000ff" fill-rule="evenodd" fill-opacity="1" stroke="#000000" stroke-opacity="1" stroke-width="4.8"/>
<circle clip-path="url(#clip042)" cx="1229.8" cy="2106.04" r="14.4" fill="#0000ff" fill-rule="evenodd" fill-opacity="1" stroke="#000000" stroke-opacity="1" stroke-width="4.8"/>
<circle clip-path="url(#clip042)" cx="2198.89" cy="1775.7" r="14.4" fill="#0000ff" fill-rule="evenodd" fill-opacity="1" stroke="#000000" stroke-opacity="1" stroke-width="4.8"/>
<circle clip-path="url(#clip042)" cx="887.514" cy="2030.52" r="14.4" fill="#0000ff" fill-rule="evenodd" fill-opacity="1" stroke="#000000" stroke-opacity="1" stroke-width="4.8"/>
<circle clip-path="url(#clip042)" cx="1624.15" cy="582.745" r="14.4" fill="#0000ff" fill-rule="evenodd" fill-opacity="1" stroke="#000000" stroke-opacity="1" stroke-width="4.8"/>
<circle clip-path="url(#clip042)" cx="701.286" cy="1158.91" r="14.4" fill="#0000ff" fill-rule="evenodd" fill-opacity="1" stroke="#000000" stroke-opacity="1" stroke-width="4.8"/>
<circle clip-path="url(#clip042)" cx="1094.08" cy="1994.92" r="14.4" fill="#0000ff" fill-rule="evenodd" fill-opacity="1" stroke="#000000" stroke-opacity="1" stroke-width="4.8"/>
<circle clip-path="url(#clip042)" cx="2275.78" cy="1998.22" r="14.4" fill="#0000ff" fill-rule="evenodd" fill-opacity="1" stroke="#000000" stroke-opacity="1" stroke-width="4.8"/>
<circle clip-path="url(#clip042)" cx="1404.84" cy="878.433" r="14.4" fill="#0000ff" fill-rule="evenodd" fill-opacity="1" stroke="#000000" stroke-opacity="1" stroke-width="4.8"/>
<circle clip-path="url(#clip042)" cx="1465.05" cy="2045.35" r="14.4" fill="#0000ff" fill-rule="evenodd" fill-opacity="1" stroke="#000000" stroke-opacity="1" stroke-width="4.8"/>
<circle clip-path="url(#clip042)" cx="1836" cy="1410.46" r="14.4" fill="#0000ff" fill-rule="evenodd" fill-opacity="1" stroke="#000000" stroke-opacity="1" stroke-width="4.8"/>
<circle clip-path="url(#clip042)" cx="1343.91" cy="1276.97" r="14.4" fill="#0000ff" fill-rule="evenodd" fill-opacity="1" stroke="#000000" stroke-opacity="1" stroke-width="4.8"/>
<circle clip-path="url(#clip042)" cx="1334.7" cy="1830.04" r="14.4" fill="#0000ff" fill-rule="evenodd" fill-opacity="1" stroke="#000000" stroke-opacity="1" stroke-width="4.8"/>
<circle clip-path="url(#clip042)" cx="2290.41" cy="1071.22" r="14.4" fill="#0000ff" fill-rule="evenodd" fill-opacity="1" stroke="#000000" stroke-opacity="1" stroke-width="4.8"/>
<circle clip-path="url(#clip042)" cx="1510.34" cy="944.451" r="14.4" fill="#0000ff" fill-rule="evenodd" fill-opacity="1" stroke="#000000" stroke-opacity="1" stroke-width="4.8"/>
<circle clip-path="url(#clip042)" cx="1817.05" cy="1126.88" r="14.4" fill="#0000ff" fill-rule="evenodd" fill-opacity="1" stroke="#000000" stroke-opacity="1" stroke-width="4.8"/>
<circle clip-path="url(#clip042)" cx="1485.17" cy="819.198" r="14.4" fill="#0000ff" fill-rule="evenodd" fill-opacity="1" stroke="#000000" stroke-opacity="1" stroke-width="4.8"/>
<circle clip-path="url(#clip042)" cx="1744.49" cy="413.827" r="14.4" fill="#0000ff" fill-rule="evenodd" fill-opacity="1" stroke="#000000" stroke-opacity="1" stroke-width="4.8"/>
<circle clip-path="url(#clip042)" cx="2201.56" cy="654.504" r="14.4" fill="#0000ff" fill-rule="evenodd" fill-opacity="1" stroke="#000000" stroke-opacity="1" stroke-width="4.8"/>
<circle clip-path="url(#clip042)" cx="1076.72" cy="1741.35" r="14.4" fill="#0000ff" fill-rule="evenodd" fill-opacity="1" stroke="#000000" stroke-opacity="1" stroke-width="4.8"/>
<circle clip-path="url(#clip042)" cx="949.361" cy="1687.85" r="14.4" fill="#0000ff" fill-rule="evenodd" fill-opacity="1" stroke="#000000" stroke-opacity="1" stroke-width="4.8"/>
<circle clip-path="url(#clip042)" cx="2028.35" cy="1678.62" r="14.4" fill="#0000ff" fill-rule="evenodd" fill-opacity="1" stroke="#000000" stroke-opacity="1" stroke-width="4.8"/>
<circle clip-path="url(#clip042)" cx="1215.46" cy="324.218" r="14.4" fill="#0000ff" fill-rule="evenodd" fill-opacity="1" stroke="#000000" stroke-opacity="1" stroke-width="4.8"/>
<circle clip-path="url(#clip042)" cx="1147.66" cy="451.882" r="14.4" fill="#0000ff" fill-rule="evenodd" fill-opacity="1" stroke="#000000" stroke-opacity="1" stroke-width="4.8"/>
<circle clip-path="url(#clip042)" cx="761.767" cy="917.403" r="14.4" fill="#0000ff" fill-rule="evenodd" fill-opacity="1" stroke="#000000" stroke-opacity="1" stroke-width="4.8"/>
<circle clip-path="url(#clip042)" cx="882.435" cy="1191.97" r="14.4" fill="#0000ff" fill-rule="evenodd" fill-opacity="1" stroke="#000000" stroke-opacity="1" stroke-width="4.8"/>
<circle clip-path="url(#clip042)" cx="927.87" cy="332.819" r="14.4" fill="#0000ff" fill-rule="evenodd" fill-opacity="1" stroke="#000000" stroke-opacity="1" stroke-width="4.8"/>
<circle clip-path="url(#clip042)" cx="653.475" cy="1851.88" r="14.4" fill="#0000ff" fill-rule="evenodd" fill-opacity="1" stroke="#000000" stroke-opacity="1" stroke-width="4.8"/>
<circle clip-path="url(#clip042)" cx="607.538" cy="948.534" r="14.4" fill="#0000ff" fill-rule="evenodd" fill-opacity="1" stroke="#000000" stroke-opacity="1" stroke-width="4.8"/>
<circle clip-path="url(#clip042)" cx="771.481" cy="628.594" r="14.4" fill="#0000ff" fill-rule="evenodd" fill-opacity="1" stroke="#000000" stroke-opacity="1" stroke-width="4.8"/>
<circle clip-path="url(#clip042)" cx="500.288" cy="1433.51" r="14.4" fill="#0000ff" fill-rule="evenodd" fill-opacity="1" stroke="#000000" stroke-opacity="1" stroke-width="4.8"/>
<circle clip-path="url(#clip042)" cx="1664.06" cy="1583.31" r="14.4" fill="#0000ff" fill-rule="evenodd" fill-opacity="1" stroke="#000000" stroke-opacity="1" stroke-width="4.8"/>
<circle clip-path="url(#clip042)" cx="1823.97" cy="1639.27" r="14.4" fill="#0000ff" fill-rule="evenodd" fill-opacity="1" stroke="#000000" stroke-opacity="1" stroke-width="4.8"/>
<circle clip-path="url(#clip042)" cx="987.073" cy="1108.51" r="14.4" fill="#0000ff" fill-rule="evenodd" fill-opacity="1" stroke="#000000" stroke-opacity="1" stroke-width="4.8"/>
<circle clip-path="url(#clip042)" cx="1260.19" cy="899.163" r="36" fill="#ff0000" fill-rule="evenodd" fill-opacity="1" stroke="#000000" stroke-opacity="1" stroke-width="4.8"/>
<circle clip-path="url(#clip042)" cx="1141.24" cy="832.1" r="36" fill="#ffff00" fill-rule="evenodd" fill-opacity="0.5" stroke="#000000" stroke-opacity="0.5" stroke-width="4.8"/>
<circle clip-path="url(#clip042)" cx="1404.84" cy="878.433" r="36" fill="#ffff00" fill-rule="evenodd" fill-opacity="0.5" stroke="#000000" stroke-opacity="0.5" stroke-width="4.8"/>
<circle clip-path="url(#clip042)" cx="1380.51" cy="1070.02" r="36" fill="#ffff00" fill-rule="evenodd" fill-opacity="0.5" stroke="#000000" stroke-opacity="0.5" stroke-width="4.8"/>
<circle clip-path="url(#clip042)" cx="1188.42" cy="1117.95" r="36" fill="#ffff00" fill-rule="evenodd" fill-opacity="0.5" stroke="#000000" stroke-opacity="0.5" stroke-width="4.8"/>
<circle clip-path="url(#clip042)" cx="1485.17" cy="819.198" r="36" fill="#ffff00" fill-rule="evenodd" fill-opacity="0.5" stroke="#000000" stroke-opacity="0.5" stroke-width="4.8"/>
<circle clip-path="url(#clip042)" cx="1510.34" cy="944.451" r="36" fill="#ffff00" fill-rule="evenodd" fill-opacity="0.5" stroke="#000000" stroke-opacity="0.5" stroke-width="4.8"/>
<circle clip-path="url(#clip042)" cx="1496.21" cy="1037.4" r="36" fill="#ffff00" fill-rule="evenodd" fill-opacity="0.5" stroke="#000000" stroke-opacity="0.5" stroke-width="4.8"/>
<circle clip-path="url(#clip042)" cx="1217.68" cy="1220.17" r="36" fill="#ffff00" fill-rule="evenodd" fill-opacity="0.5" stroke="#000000" stroke-opacity="0.5" stroke-width="4.8"/>
<circle clip-path="url(#clip042)" cx="1591.82" cy="854.574" r="36" fill="#ffff00" fill-rule="evenodd" fill-opacity="0.5" stroke="#000000" stroke-opacity="0.5" stroke-width="4.8"/>
<circle clip-path="url(#clip042)" cx="1580.06" cy="801.02" r="36" fill="#ffff00" fill-rule="evenodd" fill-opacity="0.5" stroke="#000000" stroke-opacity="0.5" stroke-width="4.8"/>
<circle clip-path="url(#clip042)" cx="1357.6" cy="1215.85" r="36" fill="#ffff00" fill-rule="evenodd" fill-opacity="0.5" stroke="#000000" stroke-opacity="0.5" stroke-width="4.8"/>
<polyline clip-path="url(#clip042)" style="stroke:#008000; stroke-linecap:round; stroke-linejoin:round; stroke-width:4; stroke-opacity:1; fill:none" points="
  1260.19,899.163 1141.24,832.1 
  "/>
<polyline clip-path="url(#clip042)" style="stroke:#008000; stroke-linecap:round; stroke-linejoin:round; stroke-width:4; stroke-opacity:1; fill:none" points="
  1260.19,899.163 1404.84,878.433 
  "/>
<polyline clip-path="url(#clip042)" style="stroke:#008000; stroke-linecap:round; stroke-linejoin:round; stroke-width:4; stroke-opacity:1; fill:none" points="
  1260.19,899.163 1380.51,1070.02 
  "/>
<polyline clip-path="url(#clip042)" style="stroke:#008000; stroke-linecap:round; stroke-linejoin:round; stroke-width:4; stroke-opacity:1; fill:none" points="
  1260.19,899.163 1188.42,1117.95 
  "/>
<polyline clip-path="url(#clip042)" style="stroke:#008000; stroke-linecap:round; stroke-linejoin:round; stroke-width:4; stroke-opacity:1; fill:none" points="
  1260.19,899.163 1485.17,819.198 
  "/>
<polyline clip-path="url(#clip042)" style="stroke:#008000; stroke-linecap:round; stroke-linejoin:round; stroke-width:4; stroke-opacity:1; fill:none" points="
  1260.19,899.163 1510.34,944.451 
  "/>
<polyline clip-path="url(#clip042)" style="stroke:#008000; stroke-linecap:round; stroke-linejoin:round; stroke-width:4; stroke-opacity:1; fill:none" points="
  1260.19,899.163 1496.21,1037.4 
  "/>
<polyline clip-path="url(#clip042)" style="stroke:#008000; stroke-linecap:round; stroke-linejoin:round; stroke-width:4; stroke-opacity:1; fill:none" points="
  1260.19,899.163 1217.68,1220.17 
  "/>
<polyline clip-path="url(#clip042)" style="stroke:#008000; stroke-linecap:round; stroke-linejoin:round; stroke-width:4; stroke-opacity:1; fill:none" points="
  1260.19,899.163 1591.82,854.574 
  "/>
<polyline clip-path="url(#clip042)" style="stroke:#008000; stroke-linecap:round; stroke-linejoin:round; stroke-width:4; stroke-opacity:1; fill:none" points="
  1260.19,899.163 1580.06,801.02 
  "/>
<polyline clip-path="url(#clip042)" style="stroke:#008000; stroke-linecap:round; stroke-linejoin:round; stroke-width:4; stroke-opacity:1; fill:none" points="
  1260.19,899.163 1357.6,1215.85 
  "/>
<polyline clip-path="url(#clip042)" style="stroke:#008000; stroke-linecap:round; stroke-linejoin:round; stroke-width:4; stroke-opacity:1; fill:none" points="
  1260.19,899.163 1141.24,832.1 
  "/>
<polyline clip-path="url(#clip042)" style="stroke:#008000; stroke-linecap:round; stroke-linejoin:round; stroke-width:4; stroke-opacity:1; fill:none" points="
  1260.19,899.163 1404.84,878.433 
  "/>
<polyline clip-path="url(#clip042)" style="stroke:#008000; stroke-linecap:round; stroke-linejoin:round; stroke-width:4; stroke-opacity:1; fill:none" points="
  1260.19,899.163 1380.51,1070.02 
  "/>
<polyline clip-path="url(#clip042)" style="stroke:#008000; stroke-linecap:round; stroke-linejoin:round; stroke-width:4; stroke-opacity:1; fill:none" points="
  1260.19,899.163 1188.42,1117.95 
  "/>
<polyline clip-path="url(#clip042)" style="stroke:#008000; stroke-linecap:round; stroke-linejoin:round; stroke-width:4; stroke-opacity:1; fill:none" points="
  1260.19,899.163 1485.17,819.198 
  "/>
<polyline clip-path="url(#clip042)" style="stroke:#008000; stroke-linecap:round; stroke-linejoin:round; stroke-width:4; stroke-opacity:1; fill:none" points="
  1260.19,899.163 1510.34,944.451 
  "/>
<polyline clip-path="url(#clip042)" style="stroke:#008000; stroke-linecap:round; stroke-linejoin:round; stroke-width:4; stroke-opacity:1; fill:none" points="
  1260.19,899.163 1496.21,1037.4 
  "/>
<polyline clip-path="url(#clip042)" style="stroke:#008000; stroke-linecap:round; stroke-linejoin:round; stroke-width:4; stroke-opacity:1; fill:none" points="
  1260.19,899.163 1217.68,1220.17 
  "/>
<polyline clip-path="url(#clip042)" style="stroke:#008000; stroke-linecap:round; stroke-linejoin:round; stroke-width:4; stroke-opacity:1; fill:none" points="
  1260.19,899.163 1591.82,854.574 
  "/>
<polyline clip-path="url(#clip042)" style="stroke:#008000; stroke-linecap:round; stroke-linejoin:round; stroke-width:4; stroke-opacity:1; fill:none" points="
  1260.19,899.163 1580.06,801.02 
  "/>
<polyline clip-path="url(#clip042)" style="stroke:#008000; stroke-linecap:round; stroke-linejoin:round; stroke-width:4; stroke-opacity:1; fill:none" points="
  1260.19,899.163 1357.6,1215.85 
  "/>
</svg>
